<svg width="0" height="0" style="position:absolute"><symbol fill="none" viewBox="0 0 30 30" id="icon--blockchain" xmlns="http://www.w3.org/2000/svg"><g clip-path="url(#aclip0_300_1174)"><path d="M22.032 27.305a.879.879 0 01-.88-.88V22.03a.88.88 0 01.06-1.756h.82c.485 0 .879.393.879.879v5.273a.879.879 0 01-.88.879zM7.969 27.305a.879.879 0 01-.88-.88V22.03a.879.879 0 01.06-1.756h.82c.485 0 .879.393.879.879v5.273a.879.879 0 01-.88.879zM15 27.305a2.64 2.64 0 01-2.637-2.637V22.91A2.64 2.64 0 0115 20.273a2.64 2.64 0 012.637 2.637v1.758A2.64 2.64 0 0115 27.305zm0-5.274a.88.88 0 00-.879.88v1.757a.88.88 0 001.758 0V22.91a.88.88 0 00-.879-.879zM22.032 9.726a2.64 2.64 0 01-2.637-2.636V5.332a2.64 2.64 0 012.637-2.637 2.64 2.64 0 012.637 2.637V7.09a2.64 2.64 0 01-2.637 2.636zm0-5.273a.88.88 0 00-.88.879V7.09a.88.88 0 001.759 0V5.332a.88.88 0 00-.88-.879zM7.969 9.726a.879.879 0 01-.88-.878V4.45a.879.879 0 01.06-1.756h.82c.485 0 .879.394.879.88v5.273a.879.879 0 01-.88.878zM15 9.726a.879.879 0 01-.879-.878V4.45a.879.879 0 01.059-1.756H15c.485 0 .879.394.879.88v5.273a.879.879 0 01-.879.878zM22.032 18.516a2.64 2.64 0 01-2.637-2.637V14.12a2.64 2.64 0 012.637-2.637 2.64 2.64 0 012.637 2.637v1.758a2.64 2.64 0 01-2.637 2.637zm0-5.274a.88.88 0 00-.88.88v1.757a.88.88 0 001.759 0V14.12a.88.88 0 00-.88-.879zM7.969 18.516a2.64 2.64 0 01-2.637-2.637V14.12a2.64 2.64 0 012.637-2.637 2.64 2.64 0 012.636 2.637v1.758a2.64 2.64 0 01-2.636 2.637zm0-5.274a.88.88 0 00-.88.88v1.757a.88.88 0 001.759 0V14.12a.88.88 0 00-.88-.879zM15 18.516a2.64 2.64 0 01-2.637-2.637V14.12A2.64 2.64 0 0115 11.484a2.64 2.64 0 012.637 2.637v1.758A2.64 2.64 0 0115 18.516zm0-5.274a.88.88 0 00-.879.88v1.757a.88.88 0 001.758 0V14.12a.88.88 0 00-.879-.879z" fill="#FF3830"/><path d="M4.395 30a2.64 2.64 0 01-2.637-2.637V16.758a.88.88 0 00-.88-.88.879.879 0 010-1.757.88.88 0 00.88-.879V2.637A2.64 2.64 0 014.395 0a.879.879 0 010 1.758.88.88 0 00-.88.879v10.605c0 .675-.254 1.291-.672 1.758.418.467.673 1.083.673 1.758v10.605a.88.88 0 00.878.88.879.879 0 010 1.757zM25.605 30a.879.879 0 010-1.758.88.88 0 00.88-.879V16.758c0-.675.254-1.291.672-1.758a2.626 2.626 0 01-.673-1.758V2.637a.88.88 0 00-.879-.88.879.879 0 010-1.757 2.64 2.64 0 012.637 2.637v10.605a.88.88 0 00.88.88.879.879 0 010 1.757.88.88 0 00-.88.879v10.605A2.64 2.64 0 0125.605 30z" fill="#fff"/></g><defs><clipPath id="aclip0_300_1174"><path fill="#fff" d="M0 0h30v30H0z"/></clipPath></defs></symbol><symbol fill="none" viewBox="0 0 30 30" id="icon--book" xmlns="http://www.w3.org/2000/svg"><path d="M30 28.242H0V1.758h30v26.484z" fill="#FFEFEF"/><path d="M30 28.242H15V1.758h15v26.484z" fill="#FCC"/><path d="M30 1.758H0v3.515h30V1.758z" fill="#FF5B5B"/><path d="M26.484 24.14h-9.726V9.376h9.726v14.766zM13.242 9.375H3.516v1.758h9.726V9.375zM9.727 12.89H3.516v1.758h6.21v-1.757zM13.242 17.578H3.516v1.758h9.726v-1.758zM9.727 21.094H3.516v1.758h6.21v-1.758z" fill="#FFBABA"/><path d="M30 1.758H15v3.515h15V1.758z" fill="#FF193D"/></symbol><symbol fill="none" viewBox="0 0 135 33" id="icon--coming" xmlns="http://www.w3.org/2000/svg"><path d="M12.336 20.834c-1.094 0-2.083-.242-2.967-.726a5.406 5.406 0 01-2.067-2.004c-.495-.863-.742-1.826-.742-2.889 0-1.062.247-2.02.742-2.872a5.341 5.341 0 012.083-2.02c.884-.484 1.873-.726 2.967-.726.82 0 1.578.137 2.273.41a4.71 4.71 0 011.767 1.2l-.741.741c-.863-.873-1.952-1.31-3.267-1.31-.874 0-1.668.2-2.383.6a4.44 4.44 0 00-1.69 1.642c-.399.694-.599 1.473-.599 2.335 0 .863.2 1.642.6 2.336A4.44 4.44 0 0010 19.193c.715.4 1.51.6 2.383.6 1.325 0 2.415-.443 3.267-1.326l.741.741a4.846 4.846 0 01-1.783 1.216 6.147 6.147 0 01-2.273.41zm11.144 0c-1.094 0-2.088-.242-2.982-.726a5.491 5.491 0 01-2.084-2.02c-.494-.853-.742-1.81-.742-2.873 0-1.062.248-2.02.742-2.872a5.375 5.375 0 012.084-2.005c.894-.494 1.888-.741 2.982-.741 1.095 0 2.079.242 2.952.726a5.342 5.342 0 012.083 2.02c.505.852.758 1.81.758 2.872 0 1.063-.253 2.026-.758 2.889a5.376 5.376 0 01-2.083 2.004c-.873.484-1.857.726-2.951.726zm0-1.042c.874 0 1.663-.194 2.368-.584a4.356 4.356 0 001.657-1.641c.4-.705.6-1.489.6-2.352 0-.862-.2-1.641-.6-2.335a4.213 4.213 0 00-1.657-1.642c-.705-.4-1.494-.6-2.367-.6-.874 0-1.668.2-2.384.6a4.323 4.323 0 00-1.673 1.642c-.4.694-.6 1.473-.6 2.335 0 .863.2 1.647.6 2.352.41.694.968 1.241 1.673 1.641.716.39 1.51.584 2.383.584zm19.884-10.1v11.047h-1.12v-8.838l-4.34 7.434h-.553l-4.34-7.387v8.791h-1.12V9.691h.962l4.798 8.192 4.75-8.192h.963zm3.6 0h1.168v11.047h-1.168V9.691zm13.995 0v11.047h-.962l-7.102-8.964v8.964h-1.168V9.691h.962l7.118 8.965V9.691h1.152zm11.387 5.523h1.12v4.214c-.515.453-1.125.8-1.83 1.042a6.806 6.806 0 01-2.225.363c-1.105 0-2.1-.242-2.983-.726a5.376 5.376 0 01-2.084-2.004c-.504-.863-.757-1.826-.757-2.889 0-1.062.252-2.02.757-2.872a5.342 5.342 0 012.084-2.02c.884-.484 1.883-.726 2.999-.726a6.36 6.36 0 012.32.41c.704.263 1.299.658 1.783 1.184l-.726.742c-.873-.863-1.983-1.295-3.33-1.295-.895 0-1.705.2-2.43.6a4.294 4.294 0 00-1.69 1.642c-.41.694-.615 1.473-.615 2.335 0 .863.205 1.642.616 2.336.41.695.973 1.242 1.688 1.642.716.4 1.52.6 2.415.6 1.136 0 2.1-.285 2.888-.853v-3.725zm11.603 5.619c-.82 0-1.61-.132-2.367-.395-.747-.263-1.326-.61-1.736-1.041l.457-.9c.4.4.931.726 1.594.979a5.937 5.937 0 002.052.363c.989 0 1.73-.18 2.225-.537.495-.368.742-.842.742-1.42 0-.442-.137-.795-.41-1.058a2.56 2.56 0 00-.979-.6c-.39-.147-.93-.305-1.625-.473-.832-.21-1.494-.41-1.989-.6-.495-.2-.92-.5-1.278-.9-.348-.4-.521-.941-.521-1.625 0-.558.147-1.063.442-1.515.294-.463.747-.831 1.357-1.105.61-.273 1.368-.41 2.273-.41.631 0 1.247.09 1.846.268.61.168 1.137.405 1.579.71l-.395.931a5.258 5.258 0 00-1.484-.678 5.367 5.367 0 00-1.546-.237c-.968 0-1.7.19-2.194.568-.484.368-.726.847-.726 1.436 0 .442.131.8.394 1.074.274.263.61.468 1.01.615.41.137.958.29 1.642.458.81.2 1.463.4 1.957.6.505.189.931.484 1.278.883.348.39.521.921.521 1.595 0 .557-.152 1.067-.457 1.53-.295.453-.753.816-1.374 1.09-.62.262-1.383.394-2.288.394zm11.493 0c-1.094 0-2.088-.242-2.982-.726a5.492 5.492 0 01-2.084-2.02c-.494-.853-.742-1.81-.742-2.873 0-1.062.248-2.02.742-2.872a5.376 5.376 0 012.084-2.005c.894-.494 1.888-.741 2.982-.741 1.095 0 2.079.242 2.952.726a5.34 5.34 0 012.083 2.02c.505.852.758 1.81.758 2.872 0 1.063-.253 2.026-.758 2.889a5.375 5.375 0 01-2.083 2.004c-.874.484-1.857.726-2.952.726zm0-1.042c.874 0 1.663-.194 2.368-.584a4.356 4.356 0 001.657-1.641c.4-.705.6-1.489.6-2.352 0-.862-.2-1.641-.6-2.335a4.213 4.213 0 00-1.657-1.642c-.705-.4-1.494-.6-2.368-.6-.873 0-1.667.2-2.383.6a4.323 4.323 0 00-1.673 1.642c-.4.694-.6 1.473-.6 2.335 0 .863.2 1.647.6 2.352.41.694.968 1.241 1.673 1.641.716.39 1.51.584 2.383.584zm13.24 1.042c-1.094 0-2.089-.242-2.983-.726a5.49 5.49 0 01-2.083-2.02c-.495-.853-.742-1.81-.742-2.873 0-1.062.247-2.02.742-2.872a5.373 5.373 0 012.083-2.005c.894-.494 1.889-.741 2.983-.741s2.078.242 2.951.726a5.342 5.342 0 012.084 2.02c.505.852.757 1.81.757 2.872 0 1.063-.252 2.026-.757 2.889a5.376 5.376 0 01-2.084 2.004c-.873.484-1.857.726-2.951.726zm0-1.042c.873 0 1.662-.194 2.367-.584a4.359 4.359 0 001.658-1.641 4.691 4.691 0 00.599-2.352c0-.862-.2-1.641-.599-2.335a4.217 4.217 0 00-1.658-1.642c-.705-.4-1.494-.6-2.367-.6s-1.668.2-2.383.6a4.32 4.32 0 00-1.673 1.642c-.4.694-.6 1.473-.6 2.335 0 .863.2 1.647.6 2.352a4.47 4.47 0 001.673 1.641c.715.39 1.51.584 2.383.584zm17.643-10.1v11.047h-.963l-7.102-8.964v8.964h-1.168V9.691h.963l7.118 8.965V9.691h1.152z" fill="#FF3830"/><path d="M72.759 28.07h-.09l-.062.063-4.58 4.563-.24-.239-4.341-4.324-.063-.063H5.739a5.524 5.524 0 01-5.524-5.523V5.739A5.524 5.524 0 015.74.215H129.13a5.524 5.524 0 015.524 5.524v16.808a5.524 5.524 0 01-5.524 5.523H72.759z" stroke="#FF3830" stroke-width=".43"/></symbol><symbol viewBox="0 0 24 24" id="icon--discord" xmlns="http://www.w3.org/2000/svg"><path fill-rule="evenodd" clip-rule="evenodd" d="M14.752 14.71c-.861 0-1.575-.755-1.575-1.698 0-.938.694-1.698 1.575-1.698.862 0 1.576.76 1.576 1.698 0 .943-.694 1.697-1.576 1.697zm-5.627 0c-.867 0-1.576-.755-1.576-1.698 0-.938.694-1.698 1.576-1.698.876 0 1.585.76 1.57 1.698 0 .943-.694 1.697-1.57 1.697zm6.152 2.512c.464.572 1.02 1.234 1.02 1.234 3.405-.107 4.7-2.33 4.7-2.314 0-4.92-2.217-8.911-2.217-8.911-2.208-1.652-4.323-1.606-4.323-1.606l-.214.245c2.625.79 3.843 1.942 3.843 1.942a12.86 12.86 0 00-4.644-1.463 13.15 13.15 0 00-3.114.03c-.097 0-.174.016-.265.031-.54.061-1.851.25-3.503.974-.57.245-.907.428-.907.428S6.917 6.594 9.695 5.81l-.158-.184S7.442 5.58 5.22 7.231c0 0-2.223 3.992-2.223 8.91 0 0 1.3 2.223 4.705 2.33 0 0 .571-.677 1.035-1.264-1.957-.586-2.702-1.804-2.702-1.804s.158.107.434.265c.015 0 .03.015.06.03.047.03.098.046.144.077.382.214.77.382 1.121.525.632.26 1.392.49 2.269.663 1.157.214 2.513.29 3.996.015a11.607 11.607 0 002.238-.663 8.898 8.898 0 001.769-.912s-.77 1.249-2.789 1.82z"/></symbol><symbol fill="none" viewBox="0 0 30 30" id="icon--fire" xmlns="http://www.w3.org/2000/svg"><g clip-path="url(#eclip0_300_915)"><path d="M3.176 14.63s1.185 1.742 3.67 3.216c0 0-1.8-15.205 9.923-17.846-3.003 11.023 3.82 14.131 6.308 8.308 4.153 5.546 1 10.384 1 10.384 1.703.246 3.134-1.615 3.134-1.615.012.23.02.46.02.692C27.23 24.524 21.755 30 15 30S2.769 24.524 2.769 17.77c0-1.086.142-2.137.407-3.14z" fill="#FF5B5B"/><path d="M27.21 17.077s-1.43 1.86-3.133 1.615c0 0 3.154-4.838-1-10.384-2.488 5.823-9.311 2.715-6.308-8.308-.628.141-1.216.32-1.769.528V30c6.755 0 12.23-5.476 12.23-12.23 0-.233-.006-.464-.02-.693z" fill="#FF3830"/><path d="M9.636 24.636a5.364 5.364 0 108.946-3.992c-2.074 2.817-5.03-1.457-2.726-4.578 0 0-6.22.78-6.22 8.57z" fill="#FBBF00"/><path d="M20.364 24.636a5.35 5.35 0 00-1.782-3.992c-2.074 2.817-5.029-1.457-2.726-4.578 0 0-.338.043-.856.206V30a5.364 5.364 0 005.364-5.364z" fill="#FFA900"/></g><defs><clipPath id="eclip0_300_915"><path fill="#fff" d="M0 0h30v30H0z"/></clipPath></defs></symbol><symbol viewBox="0 0 21 21" id="icon--globe" xmlns="http://www.w3.org/2000/svg"><path d="M13.866 6.75c-.66-3.063-2.065-5-3.366-5-1.3 0-2.707 1.938-3.366 5h6.732zM6.75 10.5c0 .836.056 1.671.167 2.5h7.166a18.748 18.748 0 000-5H6.917a18.759 18.759 0 00-.167 2.5zM7.134 14.25c.66 3.063 2.065 5 3.366 5 1.3 0 2.707-1.938 3.366-5H7.134zM15.146 6.75h3.938a9.411 9.411 0 00-6.53-5.391c1.185 1.043 2.115 2.972 2.592 5.39zM19.533 8h-4.187a20.206 20.206 0 01-.001 5h4.187a9.312 9.312 0 000-5h.001zM12.553 19.641a9.412 9.412 0 006.532-5.391h-3.937c-.48 2.42-1.41 4.348-2.595 5.391zM5.854 14.25H1.916a9.412 9.412 0 006.532 5.391c-1.187-1.043-2.117-2.972-2.594-5.391zM8.447 1.359a9.411 9.411 0 00-6.532 5.39h3.938C6.33 4.332 7.26 2.403 8.447 1.36zM5.5 10.5c0-.836.052-1.67.155-2.5H1.468a9.312 9.312 0 000 5h4.187a20.207 20.207 0 01-.155-2.5z"/></symbol><symbol fill="none" viewBox="0 0 30 26" id="icon--heart" xmlns="http://www.w3.org/2000/svg"><path d="M22.031 0A8.195 8.195 0 0015 4.025 8.196 8.196 0 007.969 0C3.329 0 0 3.639 0 8.824c0 4.957 3.504 7.717 9.2 12.27 4.517 3.638 5.132 4.236 5.8 4.798.826-.703 1.371-1.23 5.8-4.798C26.497 16.54 30 13.78 30 8.824 30 3.64 26.672 0 22.031 0z" fill="#FF6C6C"/><path d="M30 8.824c0 4.957-3.504 7.717-9.2 12.27-4.429 3.568-4.974 4.095-5.8 4.798V4.025A8.195 8.195 0 0122.031 0C26.671 0 30 3.639 30 8.824z" fill="#E63950"/></symbol><symbol viewBox="0 0 24 24" id="icon--instagram" xmlns="http://www.w3.org/2000/svg"><path fill-rule="evenodd" clip-rule="evenodd" d="M12.96 4.125c1.29.003 1.594.015 2.288.047.838.038 1.411.17 1.91.364.519.202.958.47 1.395.91.44.437.708.876.91 1.395.194.501.329 1.073.365 1.91.031.694.043.998.047 2.289V12.957a41.248 41.248 0 01-.047 2.29c-.036.837-.17 1.41-.365 1.912-.202.516-.47.956-.91 1.395a3.86 3.86 0 01-1.395.907c-.499.195-1.072.329-1.91.367-.694.032-.998.043-2.289.045h-1.918a41.19 41.19 0 01-2.288-.045c-.838-.038-1.411-.172-1.91-.367a3.86 3.86 0 01-1.395-.907 3.877 3.877 0 01-.91-1.395c-.194-.501-.329-1.075-.367-1.913a65.377 65.377 0 01-.018-.399l-.006-.185c-.013-.37-.018-.757-.02-1.509v-2.309c.003-1.128.014-1.435.044-2.093.038-.837.173-1.409.367-1.91.202-.519.47-.958.91-1.395.437-.44.876-.708 1.394-.91.5-.194 1.073-.326 1.91-.364.695-.032.999-.044 2.29-.047h1.917zM12 7.955a4.045 4.045 0 10.001 8.089 4.045 4.045 0 000-8.09zm0 1.418a2.627 2.627 0 110 5.253 2.627 2.627 0 010-5.253zm4.204-2.523a.945.945 0 10.004 1.89.945.945 0 00-.004-1.89z"/></symbol><symbol fill="none" viewBox="0 0 136 36" id="icon--logo" xmlns="http://www.w3.org/2000/svg"><path d="M.064 0v15.254h42.748a2.708 2.708 0 002.692-2.692V0H.064zm15.702 13.074h-2.5L8.14 8.588c-.961-.833-1.858-1.602-2.627-2.371h-.129c.065.769.129 1.922.129 3.397v3.46H2.307l.064-10.767h2.436l5.511 4.871 2.308 2.051h.064c-.064-1.474-.128-2.628-.128-3.397v-3.46h3.204v10.702zm13.78-8.331h-8.332v1.986h5.512v2.372h-5.512v4.102h-3.269l.064-10.768 11.6.065-.063 2.243zm13.587.128h-4.55l-.065 8.332H35.25V4.87H30.7V2.435l12.433.065v2.37z" fill="#FF3830"/><path d="M15.766 29.225c1.41-.064 2.5-.32 3.14-.833.642-.513.962-1.474.962-2.948v-.192L0 25.892v9.486h5.32v-6.089h4.358l5.063 6.089h6.409l-5.384-6.153zm3.013-10.703c-.706-.513-1.987-.77-3.846-.77H0v3.526l19.804.064c0-1.41-.385-2.371-1.025-2.82zM39.992 24.675v6.216c0 .193-.064.32-.128.385-.064.064-.192.064-.448.064H28.905c-.193 0-.385 0-.449-.064s-.128-.192-.128-.385V25.06l-5.384.192v5.833c0 1.794.32 2.948 1.026 3.589.705.576 1.987.897 3.91.897h12.625c1.923 0 3.205-.32 3.91-.897.705-.577 1.025-1.795 1.025-3.59v-6.537l-5.448.129zm4.358-6.217c-.705-.577-1.986-.897-3.909-.897H27.879c-1.922 0-3.204.32-3.91.897-.576.513-.896 1.41-1.025 2.756l22.432.064c-.064-1.346-.385-2.307-1.026-2.82zM67.615 25.187c-.705-.513-1.986-.769-3.973-.769h-9.23c-.191 0-.32-.064-.448-.128l-.064-.064-5.32.192c.065 1.41.385 2.435 1.026 2.948.64.577 1.987.833 3.91.833h9.229c.192 0 .32 0 .448.064a.49.49 0 01.128.32v2.308c0 .192-.064.32-.128.32-.064.065-.192.129-.448.129H48.58v4.037h15.125c1.987 0 3.269-.256 3.974-.833.704-.512 1.025-1.666 1.025-3.268v-2.948c0-1.539-.385-2.564-1.09-3.14zm-14.1-7.498c-1.922 0-3.204.256-3.909.833-.64.512-.961 1.41-1.025 2.82l19.227.064v-3.653H53.515v-.064zM70.05 17.689v3.653l20.446.064v-3.717H70.05zm7.5 5.832v11.856h5.447V23.328l-5.448.193zM92.61 17.689v3.717l19.036.064v-3.781H92.611zm5.32 13.715v-3.269h9.037v-3.653H97.93v-1.538l-5.32.192v12.305h19.228v-3.973H97.93v-.064zM133.629 18.522c-.705-.513-1.987-.77-3.845-.77h-14.933v3.782l13.907.064h5.897v-.064c0-1.474-.321-2.5-1.026-3.012zm-3.012 10.703c1.41-.064 2.499-.32 3.14-.833.641-.513.962-1.474.962-2.948v-3.717l-5.256.128v2.948c0 .192 0 .32-.128.384-.064.064-.192.064-.385.064h-8.78v-3.14l-5.319.128v13.01h5.319v-6.088h4.358l5.063 6.089H136l-5.383-6.025z" fill="#fff"/></symbol><symbol viewBox="0 0 161 43" id="icon--logo-transparent" xmlns="http://www.w3.org/2000/svg"><path d="M.076 0v18.058h50.606a3.206 3.206 0 003.187-3.187V0H.076zm18.588 15.478h-2.959l-6.07-5.311c-1.138-.987-2.2-1.897-3.11-2.807h-.152c.076.91.152 2.276.152 4.02v4.098H2.73L2.807 2.73H5.69l6.525 5.767 2.732 2.428h.075c-.075-1.746-.151-3.111-.151-4.022V2.807h3.793v12.67zm16.313-9.863h-9.864v2.352h6.525v2.807h-6.525v4.856h-3.87l.077-12.747 13.733.076-.076 2.656zm16.085.151h-5.387l-.076 9.864h-3.87V5.766h-5.387V2.883l14.72.076v2.807zM18.665 34.597c1.669-.075 2.958-.379 3.717-.986.759-.607 1.138-1.745 1.138-3.49v-.228L0 30.653V41.88h6.297v-7.208h5.16l5.994 7.208h7.587l-6.373-7.284zm3.565-12.67c-.834-.607-2.352-.91-4.552-.91H0v4.172l23.444.076c0-1.669-.455-2.807-1.214-3.338zM47.344 29.21v7.36c0 .228-.076.38-.152.455-.076.076-.227.076-.53.076H34.217c-.227 0-.455 0-.53-.076-.077-.075-.153-.227-.153-.455v-6.904l-6.373.227v6.905c0 2.124.38 3.49 1.214 4.249.835.682 2.352 1.062 4.628 1.062h14.947c2.276 0 3.794-.38 4.628-1.062.835-.683 1.214-2.125 1.214-4.25V29.06l-6.449.152zm5.16-7.359c-.835-.683-2.353-1.062-4.629-1.062h-14.87c-2.277 0-3.794.38-4.629 1.062-.683.607-1.062 1.67-1.214 3.262l26.555.076c-.076-1.593-.455-2.731-1.214-3.338zM80.045 29.817c-.835-.607-2.352-.91-4.704-.91H64.415c-.228 0-.38-.076-.531-.152l-.076-.076-6.297.228c.076 1.67.455 2.883 1.214 3.49.758.683 2.352.986 4.628.986h10.925c.228 0 .38 0 .531.076a.58.58 0 01.152.38v2.731c0 .228-.076.38-.151.38-.076.075-.228.151-.532.151H57.511v4.78h17.905c2.353 0 3.87-.303 4.705-.986.834-.607 1.214-1.973 1.214-3.87v-3.49c0-1.82-.456-3.035-1.29-3.718zM63.353 20.94c-2.276 0-3.794.304-4.628.987-.759.607-1.138 1.669-1.214 3.338l22.761.076v-4.325h-16.92v-.076zM82.928 20.94v4.325l24.203.076v-4.4H82.928zm8.877 6.905V41.88h6.449V27.617l-6.45.228zM109.635 20.94v4.401l22.534.076V20.94h-22.534zm6.297 16.237v-3.87h10.698v-4.324h-10.698v-1.821l-6.297.228v14.567h22.761v-4.704h-16.464v-.076zM158.193 21.927c-.835-.607-2.352-.91-4.552-.91h-17.679v4.476l16.465.076H159.407v-.076c0-1.745-.38-2.96-1.214-3.566zm-3.566 12.67c1.669-.075 2.959-.379 3.718-.986.758-.607 1.138-1.745 1.138-3.49v-4.4l-6.222.151v3.49c0 .228 0 .38-.152.456-.075.075-.227.075-.455.075H142.26v-3.717l-6.298.151V41.73h6.298v-7.207h5.159l5.994 7.207H161l-6.373-7.132z"/></symbol><symbol fill="none" viewBox="0 0 30 30" id="icon--padlock-calendar" xmlns="http://www.w3.org/2000/svg"><g clip-path="url(#kclip0_300_1125)"><path d="M28.776 7.48H1.237a.886.886 0 00-.885.886v18.77A2.868 2.868 0 003.216 30h23.582a2.868 2.868 0 002.864-2.865V8.365a.886.886 0 00-.886-.885z" fill="#fff"/><path d="M28.777 7.48h-13.77V30h11.79a2.868 2.868 0 002.865-2.865V8.365a.886.886 0 00-.885-.885z" fill="#fff"/><path d="M26.797 1.886H3.218A2.865 2.865 0 00.351 4.751v4.5h29.31v-4.5a2.865 2.865 0 00-2.864-2.865z" fill="#FF3830"/><path d="M26.798 1.886h-11.79v7.366h14.654v-4.5a2.865 2.865 0 00-2.864-2.866z" fill="#FF3830"/><path d="M5.718 5.544a.886.886 0 01-.886-.886V.886a.886.886 0 011.772 0v3.772c0 .49-.397.886-.886.886zM9.23 5.544a.886.886 0 01-.885-.886V.886a.886.886 0 011.771 0v3.772c0 .49-.396.886-.886.886zM20.784 5.544a.886.886 0 01-.886-.886V.886a.886.886 0 011.772 0v3.772c0 .49-.397.886-.886.886zM24.296 5.544a.886.886 0 01-.886-.886V.886a.886.886 0 011.772 0v3.772c0 .49-.397.886-.886.886z" fill="#fff"/></g><path d="M17.11 19.375v-2.86c0-1.163-.947-2.109-2.11-2.109-1.163 0-2.11.946-2.11 2.11v2.859h-1.406v-2.86A3.52 3.52 0 0115 13a3.52 3.52 0 013.516 3.516v2.859h-1.407z" fill="#000"/><path d="M17.11 16.516v2.859h1.406v-2.86A3.52 3.52 0 0015 13v1.406c1.163 0 2.11.946 2.11 2.11z" fill="#000"/><path d="M18.516 25h-7.032a1.056 1.056 0 01-1.054-1.055v-4.218c0-.582.473-1.055 1.054-1.055h7.032c.581 0 1.054.473 1.054 1.055v4.218c0 .582-.473 1.055-1.054 1.055z" fill="#000"/><path d="M18.516 18.672H15V25h3.516c.581 0 1.054-.473 1.054-1.055v-4.218c0-.582-.473-1.055-1.054-1.055z" fill="#000"/><path d="M16.055 21.133a1.056 1.056 0 00-2.11 0c0 .458.295.844.703.99v1.12a.351.351 0 10.704 0v-1.12c.408-.146.703-.532.703-.99z" fill="#fff"/><path d="M15.352 23.242v-1.119A1.053 1.053 0 0015 20.078v3.516a.351.351 0 00.352-.352z" fill="#fff"/><defs><clipPath id="kclip0_300_1125"><path fill="#fff" d="M0 0h30v30H0z"/></clipPath></defs></symbol><symbol fill="none" viewBox="0 0 30 30" id="icon--people-calendar" xmlns="http://www.w3.org/2000/svg"><g clip-path="url(#lclip0_300_1146)"><path d="M28.776 7.48H1.237a.886.886 0 00-.885.886v18.77A2.868 2.868 0 003.216 30h23.582a2.868 2.868 0 002.864-2.865V8.365a.886.886 0 00-.886-.885z" fill="#fff"/><path d="M28.776 7.48H15.007V30h11.79a2.868 2.868 0 002.865-2.865V8.365a.886.886 0 00-.886-.885z" fill="#fff"/><path d="M26.797 1.886H3.218A2.865 2.865 0 00.351 4.751v4.5h29.31v-4.5a2.865 2.865 0 00-2.864-2.865z" fill="#FF3830"/><path d="M26.797 1.886h-11.79v7.366h14.655v-4.5a2.865 2.865 0 00-2.864-2.866z" fill="#FF3830"/><path d="M5.718 5.544a.886.886 0 01-.886-.886V.886a.886.886 0 011.772 0v3.772c0 .49-.397.886-.886.886zM9.23 5.544a.886.886 0 01-.886-.886V.886a.886.886 0 011.772 0v3.772c0 .49-.396.886-.886.886zM20.784 5.544a.886.886 0 01-.886-.886V.886a.886.886 0 011.772 0v3.772c0 .49-.397.886-.886.886zM24.296 5.544a.886.886 0 01-.886-.886V.886a.886.886 0 011.772 0v3.772c0 .49-.396.886-.886.886z" fill="#fff"/></g><g clip-path="url(#lclip1_300_1146)"><path d="M20.337 20.003h-1.523c-1.193 0-2.17.973-2.17 2.165v2.388c0 .716.59 1.302 1.305 1.302h3.253c.716 0 1.298-.586 1.298-1.302v-2.388c0-1.193-.97-2.165-2.163-2.165z" fill="#9693AA"/><path d="M19.576 20.003h-.762c-1.193 0-2.17.973-2.17 2.165v2.388c0 .716.59 1.302 1.305 1.302h1.627v-5.855zM19.575 15.566a1.948 1.948 0 00-1.945 1.946c0 1.073.873 1.946 1.945 1.946a1.948 1.948 0 001.946-1.946 1.948 1.948 0 00-1.946-1.946z" fill="#9693AA"/><path d="M19.575 15.566a1.948 1.948 0 00-1.945 1.946c0 1.073.873 1.946 1.945 1.946v-3.892zM11.193 20.003H9.67c-1.193 0-2.17.972-2.17 2.165v2.388c0 .716.589 1.302 1.305 1.302h3.253c.716 0 1.298-.586 1.298-1.302v-2.388c0-1.193-.97-2.165-2.163-2.165z" fill="#9693AA"/><path d="M10.431 20.003H9.67c-1.193 0-2.17.973-2.17 2.165v2.388c0 .716.589 1.302 1.305 1.302h1.626v-5.855z" fill="#9693AA"/><path d="M16.325 18.878h-2.65c-1.193 0-2.163.97-2.163 2.163v4.38c0 .24.194.434.432.434h6.112a.433.433 0 00.432-.433v-4.38c0-1.194-.97-2.164-2.163-2.164z" fill="#000"/><path d="M15.015 18.878h-1.34c-1.193 0-2.163.97-2.163 2.163v4.38c0 .24.194.434.432.434h3.07v-6.977zM15 13.141a2.605 2.605 0 00-2.602 2.602A2.605 2.605 0 0015 18.345a2.605 2.605 0 002.602-2.602A2.605 2.605 0 0015 13.141z" fill="#000"/><path d="M15 13.141a2.605 2.605 0 00-2.602 2.602A2.605 2.605 0 0015 18.345v-5.204z" fill="#000"/><path d="M10.431 15.566a1.948 1.948 0 00-1.946 1.946c0 1.073.873 1.946 1.946 1.946a1.948 1.948 0 001.946-1.946 1.948 1.948 0 00-1.946-1.946z" fill="#9693AA"/><path d="M10.431 15.566a1.948 1.948 0 00-1.946 1.946c0 1.073.873 1.946 1.946 1.946v-3.892z" fill="#9693AA"/></g><defs><clipPath id="lclip0_300_1146"><path fill="#fff" d="M0 0h30v30H0z"/></clipPath><clipPath id="lclip1_300_1146"><path fill="#fff" transform="translate(7.5 12)" d="M0 0h15v15H0z"/></clipPath></defs></symbol><symbol fill="none" viewBox="0 0 30 30" id="icon--speed" xmlns="http://www.w3.org/2000/svg"><path d="M30 18.879H19.336V18c0-4.362-3.549-7.91-7.91-7.91-4.362 0-7.91 3.548-7.91 7.91v.879H0V18c0-4.007 1.56-7.774 4.393-10.607A14.902 14.902 0 0115 3c4.007 0 7.773 1.56 10.607 4.393A14.902 14.902 0 0130 18v.879z" fill="#FF5B5B"/><path d="M25.607 7.393A14.902 14.902 0 0015 3 14.902 14.902 0 003.79 8.033l3.333 3.333a7.864 7.864 0 014.303-1.276c3.63 0 6.696 2.458 7.623 5.797l10.937 1.472a14.891 14.891 0 00-4.38-9.966z" fill="#E20000"/><path d="M19.336 18v.879H30V18c0-4.007-1.56-7.774-4.393-10.607A14.902 14.902 0 0015 3v7.945A7.919 7.919 0 0119.336 18z" fill="#FF3830"/><path d="M26.26 7.395L12.77 19.704a1.172 1.172 0 00-.04 1.694l3.295 3.295a1.172 1.172 0 001.696-.041L30 11.132V7.396h-3.74z" fill="#fff"/><path d="M16.025 24.693a1.172 1.172 0 001.696-.041L30 11.132V7.396l-15.623 15.65 1.648 1.648z" fill="#fff"/><path d="M15 25.94c-.94 0-1.822-.366-2.486-1.03a3.52 3.52 0 010-4.972A3.493 3.493 0 0115 18.908c.939 0 1.822.366 2.486 1.03a3.52 3.52 0 010 4.972A3.493 3.493 0 0115 25.94z" fill="#9693AA"/><path d="M17.486 19.938l-4.972 4.972A3.493 3.493 0 0015 25.94c.939 0 1.822-.366 2.486-1.03a3.52 3.52 0 000-4.972z" fill="#9693AA"/></symbol><symbol fill="none" viewBox="0 0 30 30" id="icon--star" xmlns="http://www.w3.org/2000/svg"><g clip-path="url(#nclip0_300_966)"><path d="M30 11.581l-10.898-.703L14.988.56l-4.113 10.318L0 11.58l8.344 7.102L5.602 29.44l9.386-5.941 9.387 5.941-2.742-10.757L30 11.58z" fill="#FFD400"/><path d="M21.633 18.683l2.742 10.757-9.387-5.941V.559l4.114 10.319L30 11.58l-8.367 7.102z" fill="#FDBF00"/></g><defs><clipPath id="nclip0_300_966"><path fill="#fff" d="M0 0h30v30H0z"/></clipPath></defs></symbol><symbol fill="none" viewBox="0 0 28 28" id="icon--tag" xmlns="http://www.w3.org/2000/svg"><g clip-path="url(#oclip0_300_1114)"><path d="M25.014 7.366l-2.19-2.19-2.19-2.19a2.053 2.053 0 00-2.094-.504l-4.75 1.536a3.843 3.843 0 00-1.529.936L.24 16.974a.82.82 0 000 1.16l9.625 9.626a.82.82 0 001.16 0l12.021-12.021c.427-.427.75-.955.936-1.53l1.536-4.749a2.056 2.056 0 00-.504-2.094zm-4.78 3.34a2.08 2.08 0 11-2.94-2.94 2.08 2.08 0 012.94 2.94z" fill="#FF3830"/><path d="M25.519 9.46l-1.537 4.75a3.843 3.843 0 01-.936 1.529L11.026 27.76a.82.82 0 01-1.16 0l-4.813-4.813 12.24-12.24a2.08 2.08 0 002.94-2.94l2.591-2.591 2.19 2.19c.55.551.744 1.353.505 2.094z" fill="#FF3830"/><path d="M27.76 1.4l-7.257 7.256a.818.818 0 01-1.16 0 .82.82 0 010-1.16L26.6.24a.821.821 0 011.16 1.16z" fill="#fff"/><path d="M27.76 1.4l-7.257 7.256a.819.819 0 01-1.16 0L27.76.24c.32.32.32.84 0 1.16z" fill="#fff"/></g><defs><clipPath id="oclip0_300_1114"><path fill="#fff" d="M0 0h28v28H0z"/></clipPath></defs></symbol><symbol viewBox="0 0 22 21" id="icon--thumb" xmlns="http://www.w3.org/2000/svg"><path d="M5.422 7.11H.5V20.1h4.922V7.11zM21.053 12.54c0-.47-.156-.902-.418-1.25a2.083 2.083 0 00-1.22-3.775h-4.739l.66-2.278V4.146A3.652 3.652 0 0011.688.498a.886.886 0 00-.885.884v2.42c-.329.527-2.155 2.576-4.15 4.723v10.767l1.702.638a8.953 8.953 0 003.155.572h6.563c1.15 0 2.085-.935 2.085-2.085 0-.468-.155-.9-.417-1.25a2.084 2.084 0 00.447-2.939c.523-.379.865-.995.865-1.689z"/></symbol><symbol fill="none" viewBox="0 0 25 25" id="icon--tick-calendar" xmlns="http://www.w3.org/2000/svg"><path d="M23.687 6.233H.738A.738.738 0 000 6.972v15.64A2.39 2.39 0 002.387 25h19.651a2.39 2.39 0 002.387-2.387V6.972a.738.738 0 00-.738-.739z" fill="#fff"/><path d="M23.687 6.233H12.213V25h9.825a2.39 2.39 0 002.387-2.387V6.972a.738.738 0 00-.738-.739z" fill="#fff"/><path d="M11.142 19.33c-.365 0-.715-.145-.973-.403l-2.77-2.769a1.376 1.376 0 011.947-1.946l1.796 1.796 3.938-3.938a1.376 1.376 0 011.946 1.945l-4.912 4.912a1.375 1.375 0 01-.972.403z" fill="#000"/><path d="M15.08 12.07l-2.867 2.867v3.891l4.813-4.812a1.376 1.376 0 10-1.946-1.946z" fill="#000"/><path d="M22.038 1.572H2.388A2.387 2.387 0 000 3.959v3.75h24.425V3.96a2.387 2.387 0 00-2.387-2.387z" fill="#FF3830"/><path d="M22.038 1.572h-9.825V7.71h12.213V3.96a2.387 2.387 0 00-2.388-2.388z" fill="#FF3830"/><path d="M4.472 4.62a.738.738 0 01-.738-.738V.738a.738.738 0 011.476 0v3.144c0 .408-.33.738-.738.738zM7.399 4.62a.738.738 0 01-.738-.738V.738a.738.738 0 011.476 0v3.144c0 .408-.33.738-.738.738zM17.027 4.62a.738.738 0 01-.738-.738V.738a.738.738 0 011.476 0v3.144c0 .408-.33.738-.738.738zM19.954 4.62a.738.738 0 01-.738-.738V.738a.738.738 0 011.476 0v3.144c0 .408-.33.738-.738.738z" fill="#fff"/></symbol><symbol viewBox="0 0 24 24" id="icon--twitter" xmlns="http://www.w3.org/2000/svg"><path fill-rule="evenodd" clip-rule="evenodd" d="M8.66 19.499c6.793 0 10.507-5.628 10.507-10.507 0-.16 0-.319-.011-.478a7.585 7.585 0 001.843-1.911 7.418 7.418 0 01-2.123.581A3.687 3.687 0 0020.5 5.141a7.343 7.343 0 01-2.345.897 3.696 3.696 0 00-6.292 3.368 10.483 10.483 0 01-7.61-3.86 3.697 3.697 0 001.143 4.932 3.701 3.701 0 01-1.676-.463v.046a3.694 3.694 0 002.962 3.62 3.683 3.683 0 01-1.667.064 3.695 3.695 0 003.45 2.564A7.419 7.419 0 013 17.839a10.459 10.459 0 005.66 1.657"/></symbol></svg>