<svg width="24" height="24" fill="none" xmlns="http://www.w3.org/2000/svg"><path fill-rule="evenodd" clip-rule="evenodd" d="M18 4V3a1 1 0 10-2 0v1H8V3a1 1 0 00-2 0v1H5c-1.11 0-1.99.9-1.99 2L3 20a2 2 0 002 2h14c1.1 0 2-.9 2-2V6c0-1.1-.9-2-2-2h-1zM5 20V9h14v11H5zm2-8a1 1 0 011-1h3a1 1 0 011 1v3a1 1 0 01-1 1H8a1 1 0 01-1-1v-3z" fill="#C2D1D9"/><mask id="a" style="mask-type:alpha" maskUnits="userSpaceOnUse" x="3" y="2" width="18" height="20"><path fill-rule="evenodd" clip-rule="evenodd" d="M18 4V3a1 1 0 10-2 0v1H8V3a1 1 0 00-2 0v1H5c-1.11 0-1.99.9-1.99 2L3 20a2 2 0 002 2h14c1.1 0 2-.9 2-2V6c0-1.1-.9-2-2-2h-1zM5 20V9h14v11H5zm2-8a1 1 0 011-1h3a1 1 0 011 1v3a1 1 0 01-1 1H8a1 1 0 01-1-1v-3z" fill="#fff"/></mask><g mask="url(#a)"><path fill="#C2D1D9" d="M0 0h24v24H0z"/></g></svg>