<svg width="135" height="33" fill="none" xmlns="http://www.w3.org/2000/svg"><path d="M12.336 20.834c-1.094 0-2.083-.242-2.967-.726a5.406 5.406 0 01-2.067-2.004c-.495-.863-.742-1.826-.742-2.889 0-1.062.247-2.02.742-2.872a5.341 5.341 0 012.083-2.02c.884-.484 1.873-.726 2.967-.726.82 0 1.578.137 2.273.41a4.71 4.71 0 011.767 1.2l-.741.741c-.863-.873-1.952-1.31-3.267-1.31-.874 0-1.668.2-2.383.6a4.44 4.44 0 00-1.69 1.642c-.399.694-.599 1.473-.599 2.335 0 .863.2 1.642.6 2.336A4.44 4.44 0 0010 19.193c.715.4 1.51.6 2.383.6 1.325 0 2.415-.443 3.267-1.326l.741.741a4.846 4.846 0 01-1.783 1.216 6.147 6.147 0 01-2.273.41zm11.144 0c-1.094 0-2.088-.242-2.982-.726a5.491 5.491 0 01-2.084-2.02c-.494-.853-.742-1.81-.742-2.873 0-1.062.248-2.02.742-2.872a5.375 5.375 0 012.084-2.005c.894-.494 1.888-.741 2.982-.741 1.095 0 2.079.242 2.952.726a5.342 5.342 0 012.083 2.02c.505.852.758 1.81.758 2.872 0 1.063-.253 2.026-.758 2.889a5.376 5.376 0 01-2.083 2.004c-.873.484-1.857.726-2.951.726zm0-1.042c.874 0 1.663-.194 2.368-.584a4.356 4.356 0 001.657-1.641c.4-.705.6-1.489.6-2.352 0-.862-.2-1.641-.6-2.335a4.213 4.213 0 00-1.657-1.642c-.705-.4-1.494-.6-2.367-.6-.874 0-1.668.2-2.384.6a4.323 4.323 0 00-1.673 1.642c-.4.694-.6 1.473-.6 2.335 0 .863.2 1.647.6 2.352.41.694.968 1.241 1.673 1.641.716.39 1.51.584 2.383.584zm19.884-10.1v11.047h-1.12v-8.838l-4.34 7.434h-.553l-4.34-7.387v8.791h-1.12V9.691h.962l4.798 8.192 4.75-8.192h.963zm3.6 0h1.168v11.047h-1.168V9.691zm13.995 0v11.047h-.962l-7.102-8.964v8.964h-1.168V9.691h.962l7.118 8.965V9.691h1.152zm11.387 5.523h1.12v4.214c-.515.453-1.125.8-1.83 1.042a6.806 6.806 0 01-2.225.363c-1.105 0-2.1-.242-2.983-.726a5.376 5.376 0 01-2.084-2.004c-.504-.863-.757-1.826-.757-2.889 0-1.062.252-2.02.757-2.872a5.342 5.342 0 012.084-2.02c.884-.484 1.883-.726 2.999-.726a6.36 6.36 0 012.32.41 4.544 4.544 0 011.783 1.184l-.726.742c-.873-.863-1.983-1.295-3.33-1.295-.895 0-1.705.2-2.43.6a4.294 4.294 0 00-1.69 1.642c-.41.694-.615 1.473-.615 2.335 0 .863.205 1.642.616 2.336.41.695.973 1.242 1.688 1.642.716.4 1.52.6 2.415.6 1.136 0 2.1-.285 2.888-.853v-3.725zm11.603 5.619c-.82 0-1.61-.132-2.367-.395-.747-.263-1.326-.61-1.736-1.041l.457-.9c.4.4.931.726 1.594.979a5.937 5.937 0 002.052.363c.989 0 1.73-.18 2.225-.537.495-.368.742-.842.742-1.42 0-.442-.137-.795-.41-1.058a2.56 2.56 0 00-.979-.6c-.39-.147-.93-.305-1.625-.473-.832-.21-1.494-.41-1.989-.6-.495-.2-.92-.5-1.278-.9-.348-.4-.521-.941-.521-1.625 0-.558.147-1.063.442-1.515.294-.463.747-.831 1.357-1.105.61-.273 1.368-.41 2.273-.41.631 0 1.247.09 1.846.268.61.168 1.137.405 1.579.71l-.395.931a5.258 5.258 0 00-1.484-.678 5.367 5.367 0 00-1.546-.237c-.968 0-1.7.19-2.194.568-.484.368-.726.847-.726 1.436 0 .442.131.8.394 1.074.274.263.61.468 1.01.615.41.137.958.29 1.642.458.81.2 1.463.4 1.957.6.505.189.931.484 1.278.883.348.39.521.921.521 1.595 0 .557-.152 1.067-.457 1.53-.295.453-.753.816-1.374 1.09-.62.262-1.383.394-2.288.394zm11.493 0c-1.094 0-2.088-.242-2.982-.726a5.492 5.492 0 01-2.084-2.02c-.494-.853-.742-1.81-.742-2.873 0-1.062.248-2.02.742-2.872a5.376 5.376 0 012.084-2.005c.894-.494 1.888-.741 2.982-.741 1.095 0 2.079.242 2.952.726a5.34 5.34 0 012.083 2.02c.505.852.758 1.81.758 2.872 0 1.063-.253 2.026-.758 2.889a5.375 5.375 0 01-2.083 2.004c-.874.484-1.857.726-2.952.726zm0-1.042c.874 0 1.663-.194 2.368-.584a4.356 4.356 0 001.657-1.641c.4-.705.6-1.489.6-2.352 0-.862-.2-1.641-.6-2.335a4.213 4.213 0 00-1.657-1.642c-.705-.4-1.494-.6-2.368-.6-.873 0-1.667.2-2.383.6a4.323 4.323 0 00-1.673 1.642c-.4.694-.6 1.473-.6 2.335 0 .863.2 1.647.6 2.352.41.694.968 1.241 1.673 1.641.716.39 1.51.584 2.383.584zm13.24 1.042c-1.094 0-2.089-.242-2.983-.726a5.49 5.49 0 01-2.083-2.02c-.495-.853-.742-1.81-.742-2.873 0-1.062.247-2.02.742-2.872a5.373 5.373 0 012.083-2.005c.894-.494 1.889-.741 2.983-.741s2.078.242 2.951.726a5.342 5.342 0 012.084 2.02c.505.852.757 1.81.757 2.872 0 1.063-.252 2.026-.757 2.889a5.376 5.376 0 01-2.084 2.004c-.873.484-1.857.726-2.951.726zm0-1.042c.873 0 1.662-.194 2.367-.584a4.359 4.359 0 001.658-1.641 4.691 4.691 0 00.599-2.352c0-.862-.2-1.641-.599-2.335a4.217 4.217 0 00-1.658-1.642c-.705-.4-1.494-.6-2.367-.6s-1.668.2-2.383.6a4.32 4.32 0 00-1.673 1.642c-.4.694-.6 1.473-.6 2.335 0 .863.2 1.647.6 2.352a4.47 4.47 0 001.673 1.641c.715.39 1.51.584 2.383.584zm17.643-10.1v11.047h-.963l-7.102-8.964v8.964h-1.168V9.691h.963l7.118 8.965V9.691h1.152z" fill="#FF3830"/><path d="M72.759 28.07h-.09l-.062.063-4.58 4.563-.24-.239-4.341-4.324-.063-.063H5.739a5.524 5.524 0 01-5.524-5.523V5.739A5.524 5.524 0 015.74.215h123.39a5.524 5.524 0 015.524 5.524v16.808a5.524 5.524 0 01-5.524 5.523H72.759z" stroke="#FF3830" stroke-width=".43"/></svg>